<?xml version="1.0" encoding="UTF-8"?>
<svg width="512" height="512" viewBox="0 0 512 512" fill="none" xmlns="http://www.w3.org/2000/svg">
  <!-- Splash Icon - Clean design for splash screen -->
  <defs>
    <linearGradient id="clockGradient" x1="0%" y1="0%" x2="100%" y2="100%">
      <stop offset="0%" style="stop-color:#FFFFFF;stop-opacity:1" />
      <stop offset="100%" style="stop-color:#E3F2FD;stop-opacity:1" />
    </linearGradient>
    <linearGradient id="handGradient" x1="0%" y1="0%" x2="100%" y2="100%">
      <stop offset="0%" style="stop-color:#FF5722;stop-opacity:1" />
      <stop offset="100%" style="stop-color:#D84315;stop-opacity:1" />
    </linearGradient>
  </defs>
  
  <!-- Clock Face -->
  <circle cx="256" cy="256" r="200" fill="url(#clockGradient)" stroke="#1976D2" stroke-width="8"/>
  
  <!-- Hour Markers -->
  <g stroke="#1976D2" stroke-width="8" stroke-linecap="round">
    <!-- 12 o'clock -->
    <line x1="256" y1="80" x2="256" y2="110" />
    <!-- 3 o'clock -->
    <line x1="432" y1="256" x2="402" y2="256" />
    <!-- 6 o'clock -->
    <line x1="256" y1="432" x2="256" y2="402" />
    <!-- 9 o'clock -->
    <line x1="80" y1="256" x2="110" y2="256" />
  </g>
  
  <!-- Smaller Hour Markers -->
  <g stroke="#42A5F5" stroke-width="4" stroke-linecap="round">
    <!-- 1 o'clock -->
    <line x1="355" y1="135" x2="340" y2="150" />
    <!-- 2 o'clock -->
    <line x1="397" y1="197" x2="382" y2="212" />
    <!-- 4 o'clock -->
    <line x1="397" y1="315" x2="382" y2="300" />
    <!-- 5 o'clock -->
    <line x1="355" y1="377" x2="340" y2="362" />
    <!-- 7 o'clock -->
    <line x1="197" y1="377" x2="212" y2="362" />
    <!-- 8 o'clock -->
    <line x1="135" y1="315" x2="150" y2="300" />
    <!-- 10 o'clock -->
    <line x1="135" y1="197" x2="150" y2="212" />
    <!-- 11 o'clock -->
    <line x1="197" y1="135" x2="212" y2="150" />
  </g>
  
  <!-- Clock Hands -->
  <!-- Hour Hand (pointing to 9) -->
  <line x1="256" y1="256" x2="180" y2="256" stroke="url(#handGradient)" stroke-width="12" stroke-linecap="round"/>
  
  <!-- Minute Hand (pointing to 12) -->
  <line x1="256" y1="256" x2="256" y2="150" stroke="url(#handGradient)" stroke-width="8" stroke-linecap="round"/>
  
  <!-- Center Dot -->
  <circle cx="256" cy="256" r="16" fill="url(#handGradient)"/>
  
  <!-- Work Badge/Icon -->
  <g transform="translate(360, 160)">
    <!-- Badge Background -->
    <circle cx="0" cy="0" r="50" fill="#4CAF50" stroke="#FFFFFF" stroke-width="4"/>
    
    <!-- Briefcase Icon -->
    <g fill="#FFFFFF">
      <!-- Briefcase Body -->
      <rect x="-25" y="-12" width="50" height="30" rx="5" ry="5"/>
      <!-- Briefcase Handle -->
      <rect x="-12" y="-22" width="24" height="12" rx="3" ry="3" fill="none" stroke="#FFFFFF" stroke-width="3"/>
      <!-- Briefcase Lock -->
      <rect x="-5" y="-3" width="10" height="8" rx="1" ry="1"/>
    </g>
  </g>
</svg>
